<?xml version="1.0"  encoding="utf-8"?>
<!-- Generator: Adobe Illustrator 16.0.0, SVG Export Plug-In . SVG Version: 6.00 Build 0)  -->
<!DOCTYPE svg PUBLIC "-//W3C//DTD SVG 1.1//EN" "http://www.w3.org/Graphics/SVG/1.1/DTD/svg11.dtd">
<svg version="1.1" preserveAspectRatio="none" id="Capa_1" xmlns="http://www.w3.org/2000/svg" xmlns:xlink="http://www.w3.org/1999/xlink" x="0px" y="0px"
	 viewBox="0 0 336.24 524.268" enable-background="new 0 0 336.24 524.268"
	 xml:space="preserve">
<path fill="none" stroke="#000000" stroke-miterlimit="10" d="M27.136,0.5c0,12.56,0,25.119,0,37.679
	c0.001,30.78,0,61.561,0,92.341c0,39.132,0.001,78.264,0,117.396c-0.001,37.56,0.005,75.121,0,112.682
	c-0.004,26.087,0.006,52.177,0.01,78.267c0.001,6.869-1.845,13.734-4.832,18.752c-4.308,7.236-8.875,14.346-12.763,21.82
	c-7.107,13.666-17.558,33.854,3.014,41.209c4.328,1.549,9.899,2.688,14.571,3.121c0.004,0,308.604,0,308.604,0V0.5H27.136z"/>
</svg>
